<svg width="24" height="25" viewBox="0 0 24 25" fill="none" xmlns="http://www.w3.org/2000/svg">
<path d="M2 7.44592L10.1649 13.1614C10.8261 13.6242 11.1567 13.8556 11.5163 13.9452C11.8339 14.0244 12.1661 14.0244 12.4837 13.9452C12.8433 13.8556 13.1739 13.6242 13.8351 13.1614L22 7.44592M6.8 20.4459H17.2C18.8802 20.4459 19.7202 20.4459 20.362 20.1189C20.9265 19.8313 21.3854 19.3724 21.673 18.8079C22 18.1662 22 17.3261 22 15.6459V9.24592C22 7.56577 22 6.72569 21.673 6.08395C21.3854 5.51947 20.9265 5.06052 20.362 4.7729C19.7202 4.44592 18.8802 4.44592 17.2 4.44592H6.8C5.11984 4.44592 4.27976 4.44592 3.63803 4.7729C3.07354 5.06052 2.6146 5.51947 2.32698 6.08395C2 6.72569 2 7.56577 2 9.24592V15.6459C2 17.3261 2 18.1662 2.32698 18.8079C2.6146 19.3724 3.07354 19.8313 3.63803 20.1189C4.27976 20.4459 5.11984 20.4459 6.8 20.4459Z" stroke="white" stroke-width="1.5" stroke-linecap="round" stroke-linejoin="round"/>
</svg>
