<svg width="85" height="71" viewBox="0 0 85 71" fill="none" xmlns="http://www.w3.org/2000/svg">
<g id="Vector">
<path d="M22.4219 26.0419C22.9662 25.3974 23.5448 24.7787 24.1464 24.1743L13.7051 14.601C12.4791 13.4638 10.7547 15.3458 12.0036 16.4687L22.4219 26.0419Z" fill="#EC9667"/>
<path d="M18.1967 32.6562C18.5548 31.8914 18.9444 31.1409 19.3683 30.4075L6.82454 23.8764C5.32639 23.103 4.15479 25.3545 5.63575 26.1079L18.1967 32.6562Z" fill="#EC9667"/>
<path d="M15.8105 40.1586C15.9595 39.3222 16.1457 38.4915 16.3634 37.6722L2.55634 34.6014C0.909238 34.2348 0.356385 36.7212 2.00349 37.0879L15.8105 40.1586Z" fill="#EC9667"/>
<path d="M20.0386 61.6197C19.8066 61.2559 19.5889 60.8864 19.3769 60.5168L7.42037 68.1193C6.01102 69.0159 7.39172 71.1844 8.79821 70.2878L20.7548 62.6853C20.5113 62.3358 20.2707 61.9835 20.0386 61.6197Z" fill="#EC9667"/>
<path d="M3.63627 59.9439L17.1311 55.69C16.8389 54.8851 16.5782 54.0744 16.3577 53.258L2.87143 57.509C1.28161 58.0189 2.02927 60.4337 3.63627 59.9439Z" fill="#EC9667"/>
<path d="M1.29887 48.6174L15.4439 48.013C15.3723 47.168 15.338 46.3201 15.338 45.475L1.19002 46.0794C-0.477138 46.1682 -0.348233 48.6919 1.29887 48.6174Z" fill="#EC9667"/>
<path d="M66.7305 24.1487L76.3038 13.7304C77.4496 12.47 75.582 10.7684 74.4447 11.9916L64.86 22.4214C65.5045 22.9656 66.1261 23.5471 66.7305 24.1487Z" fill="#EC9667"/>
<path d="M29.2912 20.0466C29.6521 19.8175 30.0159 19.6026 30.3826 19.3907L22.7858 7.44556C21.8749 6.01329 19.7294 7.37967 20.6403 8.81194L28.237 20.757C28.5808 20.5136 28.9302 20.2758 29.2912 20.0466Z" fill="#EC9667"/>
<path d="M53.2386 16.3714L56.3151 2.54714C56.6817 0.900029 54.1953 0.347177 53.8287 1.99428L50.7522 15.8185C51.5886 15.9675 52.4193 16.1508 53.2386 16.3714Z" fill="#EC9667"/>
<path d="M37.644 16.3658L33.4045 2.86239C32.8946 1.26971 30.4598 2.03454 30.9697 3.62436L35.212 17.1392C36.017 16.847 36.8276 16.5864 37.644 16.3658Z" fill="#EC9667"/>
<path d="M45.4386 15.3487L44.8341 1.18361C44.7596 -0.463492 42.2217 -0.357506 42.2962 1.2896L42.9006 15.4547C43.7485 15.3802 44.5935 15.3459 45.4386 15.3487Z" fill="#EC9667"/>
<path d="M60.4916 19.3675L67.0399 6.81227C67.8276 5.33704 65.5761 4.16258 64.7855 5.63781L58.2372 18.1931C59.002 18.554 59.7554 18.9436 60.4916 19.3675Z" fill="#EC9667"/>
<path d="M82.1017 20.6279L70.1451 28.2304C70.3886 28.5799 70.6321 28.9351 70.8613 29.296C71.0904 29.657 71.311 30.0294 71.523 30.3989L83.4795 22.7964C84.8889 21.8998 83.511 19.7313 82.1017 20.6279Z" fill="#EC9667"/>
</g>
</svg>
